# xmcd CD database file
#
# Track frame offsets:
#	183
#	25658
#	50595
#	60963
#	76408
#	94805
#	127945
#	145438
#	162820
#	186743
#	211533
#
# Disc length: 3178 seconds
#
# Revision: 0
# Processed by: cddbd v1.5.1PL0 Copyright (c) Steve Scherf et al.
# Submitted via: CDex 1.51
#
DISCID=8e0c680b
DTITLE=The Velvet Underground - Concrete Dreams
DYEAR=1969
DGENRE=Rock
TTITLE0=I'm Waiting For The Man
TTITLE1=Sister Ray
TTITLE2=That's The Story Of My Life
TTITLE3=Jesus
TTITLE4=I'm Set Free
TTITLE5=Run Run Run
TTITLE6=What Goes On
TTITLE7=Candy Says
TTITLE8=Beginning To See The Light
TTITLE9=White Light White Heat
TTITLE10=Pale Blue Eyes
EXTD=YEAR: 1969
EXTT0=
EXTT1=
EXTT2=
EXTT3=
EXTT4=
EXTT5=
EXTT6=
EXTT7=
EXTT8=
EXTT9=
EXTT10=
PLAYORDER=
